<svg width="34" height="34" viewBox="0 0 34 34" fill="none" xmlns="http://www.w3.org/2000/svg">
<path d="M11.984 34C8.93288 34 6.33944 32.9183 4.20366 30.755C2.06789 28.5917 1 25.9822 1 22.9267C1 19.8711 2.05568 17.2861 4.16705 15.1717C6.27841 13.0572 8.85965 12 11.9108 12H12.3867L13.3753 10.2767C13.6682 9.73889 14.1076 9.39056 14.6934 9.23167C15.2792 9.07278 15.8406 9.15222 16.3776 9.47L17.476 10.0933L17.659 9.8C18.2204 8.74889 19.0992 8.06444 20.2952 7.74667C21.4912 7.42889 22.614 7.57556 23.6636 8.18667L24.9451 8.92L23.4805 11.45L22.1991 10.7167C21.8574 10.5211 21.4851 10.4783 21.0824 10.5883C20.6796 10.6983 20.3806 10.9244 20.1854 11.2667L20.0023 11.56L21.4668 12.4033C21.9794 12.6967 22.315 13.1367 22.4737 13.7233C22.6323 14.31 22.5652 14.86 22.2723 15.3733L21.2838 17.1333C21.8452 18.0133 22.2662 18.9483 22.5469 19.9383C22.8276 20.9283 22.968 21.9489 22.968 23C22.968 26.0556 21.9001 28.6528 19.7643 30.7917C17.6285 32.9306 15.0351 34 11.984 34ZM11.984 31.0667C14.2052 31.0667 16.103 30.2783 17.6773 28.7017C19.2517 27.125 20.0389 25.2244 20.0389 23C20.0389 22.2422 19.9352 21.4967 19.7277 20.7633C19.5202 20.03 19.209 19.3333 18.794 18.6733L17.8421 17.17L19.3799 14.53L15.5721 12.33L14.0343 14.97H12.4233C10.1289 14.97 8.13349 15.7033 6.43707 17.17C4.74066 18.6367 3.89245 20.5556 3.89245 22.9267C3.89245 25.1756 4.67963 27.0944 6.254 28.6833C7.82837 30.2722 9.73837 31.0667 11.984 31.0667ZM28.6064 13.4667V10.5333H33V13.4667H28.6064ZM20.5515 5.4V1H23.4805V5.4H20.5515ZM27.6911 8.37L25.6407 6.31667L28.7529 3.2L30.8032 5.25333L27.6911 8.37Z" fill="#971313"/>
</svg>
