<svg width="34" height="34" viewBox="0 0 34 34" fill="none" xmlns="http://www.w3.org/2000/svg">
<path fill-rule="evenodd" clip-rule="evenodd" d="M2 8.5C2 4.91015 4.91015 2 8.5 2H24.5C28.0898 2 31 4.91015 31 8.5V24.5C31 28.0898 28.0899 31 24.5 31H8.5C4.91015 31 2 28.0899 2 24.5V8.5ZM8.5 5C6.567 5 5 6.567 5 8.5V24.5C5 26.433 6.567 28 8.5 28H24.5C26.433 28 28 26.433 28 24.5V8.5C28 6.567 26.433 5 24.5 5H8.5Z" fill="#970000"/>
<path fill-rule="evenodd" clip-rule="evenodd" d="M15.5 18.5V29.5H18.5V18.5H30.5V15.5H18.5V3H15.5V15.5H4V18.5H15.5Z" fill="#970000"/>
</svg>
